# xmcd
#
# Track frame offsets: 
#        150
#        11627
#        21867
#        33844
#        44860
#        59932
#        76945
#        92513
#        107989
#        122070
#
# Disc length: 1893 seconds
#
# Revision: 0
# Processed by: cddbd v1.5.2PL0 Copyright (c) Steve Scherf et al.
# Submitted via: ExactAudioCopyFreeDBPlugin 1.0
#
DISCID=8407630a
DTITLE=Luke Hilly and the Cavalry - Shake Your Bones
DYEAR=2016
DGENRE=Roots Blues
TTITLE0=Home Sweet Road
TTITLE1=You Shook Me All Night Long
TTITLE2=Diggin' My Soul
TTITLE3=I Still Believe in the Ghost of Robert Johnson
TTITLE4=I've Never Seen My Home
TTITLE5=Will the Circle Be Unbroken
TTITLE6=Oh Lord Stay Away From Me
TTITLE7=One Life We've Got to Share
TTITLE8=The Field
TTITLE9=L'Americano
EXTD=
EXTT0=
EXTT1=
EXTT2=
EXTT3=
EXTT4=
EXTT5=
EXTT6=
EXTT7=
EXTT8=
EXTT9=
PLAYORDER=
